<?xml version="1.0" encoding="utf-8"?>
<!-- Generator: Adobe Illustrator 16.0.0, SVG Export Plug-In . SVG Version: 6.00 Build 0)  -->
<!DOCTYPE svg PUBLIC "-//W3C//DTD SVG 1.1//EN" "http://www.w3.org/Graphics/SVG/1.1/DTD/svg11.dtd">
<svg version="1.1" xmlns="http://www.w3.org/2000/svg" xmlns:xlink="http://www.w3.org/1999/xlink" x="0px" y="0px" width="800px"
	 height="450px" viewBox="0 0 800 450" enable-background="new 0 0 800 450" xml:space="preserve">
<g id="Layer_3">
	<defs>
		<path id="SVGID_1_" d="M775.5,35H484.982l-19.54-34H335.558l-19.541,34H170.5V23c0-5.523-4.478-10-10-10h-80
			c-5.522,0-10,4.477-10,10v12h-45c-13.807,0-26,12.208-26,28.5v354c0,16.292,12.193,30.5,26,30.5h750c13.807,0,24-14.208,24-30.5
			v-354C799.5,47.208,789.307,35,775.5,35z"/>
	</defs>
	<clipPath id="SVGID_2_">
		<use xlink:href="#SVGID_1_"  overflow="visible"/>
	</clipPath>
	<path clip-path="url(#SVGID_2_)" fill="#4477B2" d="M170.5,53c0,5.523-4.478,10-10,10h-80c-5.522,0-10-4.477-10-10V23
		c0-5.523,4.478-10,10-10h80c5.522,0,10,4.477,10,10V53z"/>
	<path clip-path="url(#SVGID_2_)" fill="#BCC6CC" d="M775.5,35H484.982l-19.54-34H335.558l-19.541,34H25.5
		c-13.807,0-26,12.208-26,28.5v354c0,16.292,12.193,30.5,26,30.5h750c13.807,0,24-14.208,24-30.5v-354
		C799.5,47.208,789.307,35,775.5,35z"/>
	<rect x="-482.5" y="163" opacity="0.6" clip-path="url(#SVGID_2_)" width="1764" height="513"/>
	<g clip-path="url(#SVGID_2_)">
		<circle fill="#1A1A1A" cx="400.75" cy="245.25" r="173.25"/>
	</g>
	<g display="none" clip-path="url(#SVGID_2_)">
		<g display="inline">
			<path fill="#B27F44" d="M186.5,236.75c0-53.905,30.09-101.75,74.389-124.75H-23.5v250h285.337
				C217.022,338,186.5,291.037,186.5,236.75z"/>
		</g>
	</g>
	<path display="none" clip-path="url(#SVGID_2_)" fill="#B27F44" d="M495.61,111C539.909,134,570,181.845,570,235.75
		C570,290.037,539.478,337,494.663,361H777.5V111H495.61z"/>
	<circle clip-path="url(#SVGID_2_)" fill="#FF6961" cx="83" cy="76.5" r="12.5"/>
	<path clip-path="url(#SVGID_2_)" fill="#E6E8FA" d="M707.5,88c0,8.284-6.716,15-15,15h-70c-8.284,0-15-6.716-15-15V68
		c0-8.284,6.716-15,15-15h70c8.284,0,15,6.716,15,15V88z"/>
	<g display="none" opacity="0.3" clip-path="url(#SVGID_2_)">
		<path display="inline" d="M388.25,384c-31.519,0-61.383-10.104-86.364-29.221l0.572-0.819C325.09,368.379,351.298,376,378.25,376
			c77.886,0,141.25-63.364,141.25-141.25c0-44.339-20.227-85.247-55.494-112.235l0.572-0.819
			c41.278,26.299,65.922,71.179,65.922,120.054C530.5,320.187,466.687,384,388.25,384z"/>
		<path display="inline" d="M464.31,122.118C503.802,147.279,530,191.454,530,241.75c0,78.286-63.464,141.75-141.75,141.75
			c-32.369,0-62.197-10.857-86.06-29.118c21.978,14.002,48.07,22.118,76.06,22.118c78.286,0,141.75-63.464,141.75-141.75
			C520,188.833,498.161,148.022,464.31,122.118 M464.847,121.275l-1.145,1.637C498.845,149.805,519,190.568,519,234.75
			c0,77.609-63.141,140.75-140.75,140.75c-26.856,0-52.972-7.594-75.523-21.962l-1.145,1.638
			c25.069,19.185,55.039,29.324,86.668,29.324c38.13,0,73.978-14.849,100.939-41.811S531,279.88,531,241.75
			c0-24.436-6.281-48.548-18.163-69.731C501.318,151.486,484.724,133.938,464.847,121.275L464.847,121.275z"/>
	</g>
	<path opacity="0.3" clip-path="url(#SVGID_2_)" d="M706.771,63.389c0.47,1.454,0.729,3.001,0.729,4.611v20c0,8.284-6.716,15-15,15
		h-70c-5.077,0-9.557-2.529-12.271-6.389C612.176,102.638,617.825,107,624.5,107h70c8.284,0,15-6.716,15-15V72
		C709.5,68.793,708.485,65.828,706.771,63.389z"/>
	<path opacity="0.3" clip-path="url(#SVGID_2_)" d="M72.5,77.5C72.5,70.597,78.097,65,85,65c1.605,0,3.134,0.313,4.544,0.865
		C87.639,64.69,85.402,64,83,64c-6.903,0-12.5,5.597-12.5,12.5c0,5.298,3.302,9.816,7.956,11.635
		C74.887,85.934,72.5,82.001,72.5,77.5z"/>
</g>
<g id="Layer_2">
	<g>
		<circle fill="#4477B2" cx="400.25" cy="244.75" r="141.75"/>
	</g>
	<path fill="#77DD77" d="M383.5,228.5c0,0-6.5-5.5-16.5-6c-1-12.5-11.5-15-11.5-15s-10.5,0.5-16-6c-1.5-4-5-6-12.922-4
		c-17.772-4.824-21,6.817-21,6.817s-8.391-0.996-10.391,0.063c-3.75-5.192,0.031-11.161,0.031-11.161s0.266-3.484-4.734-3.234
		s5.008-9.742,5.008-9.742l-3.246-3.746l-6.998,8.502c0,0-1.249,2.001-3.499,0.501c6-21,23.954-27.25,23.954-27.25s-1.546,8,0,8.75
		c1.547,0.75,4.047,1.75,4.547-0.25s2.5-11.25,4-12.25s20.5-13,21.25-17c4.5,0.5,7.875-4.75,10.375-6c7.25,1.5,11.625-3,11.625-3
		V123c0,0,5-1.75,7.25,0s8.625,3.5,9.625,2.75c0.5-10-5.813-12.5-6.563-13.75c-0.294-0.491,0.196-2.742,0.018-5.293
		c-42.682,9.956-77.899,39.198-96.075,78.038l1.222,1.006c0,0,2.762,8.25,5.012,9c8-0.5,12.006,4,12.006,4s1.064,9.5,4.159,10.25
		c4.844,2.5,8.313,0,8.313,0l0.016-0.022c2.226,1.814-0.482,8.522-0.482,8.522s-5,5.5-7.5,15c-1,10-0.5,12.5,11,28.045
		c3,10.545,7.5,7.455,13,12.455s6.5,33,6.5,33s1,15,5.5,25.5c17.5,31,28.5,26,28.5,26c-17.5-25.5-1.5-34-1.5-34s18.5-17,16-19.5
		s2-15,2-15s4-6.5,15-5.5c5.5-4,6.5-25.5,6.5-25.5s8.5-0.5,11-13.5C408,231.5,383.5,228.5,383.5,228.5z"/>
	<path fill="#77DD77" d="M517.515,165.098c-14.51-10.785-25.681-12.432-25.681-12.432s-2.334-1.667-1.334-4.667
		c-16-8.667-28.666-1.667-28.666-1.667s-6.667,3.667-2,10c-13,6-13.334,15.667-13.334,15.667s7.334,7.333,3.667,11.333
		c-4,14,20.667,29.667,22.667,31s17.666,0,17.666,0s5-4.333,9-2.667s0,6.667,0,6.667s4.667-0.667,9.667,4c2,5.333,0,7.667,0,7.667
		l-2.667,3.667c0,0,9.334,10.333,7,19c-2.334-0.667-3.333,2.667-3.333,2.667l3.333,5.213c0,0-5,2.787-2.333,10.454
		c-4.333-2-4.333,0-4.333,0s-1,8,1.666,16.333c-3.667,3.333-5.333,12.667-5.333,12.667s-1.667,4,0,10.333
		c-3.667,1-3.667,8.667-3.667,8.667c2.333,2.166,4.667,0,4.667,0s2.333-3.166,8.166-3.166c17.333-21.5,22.5-34.833,22.5-34.833
		l5.922-17.435c0.816-6.156,1.245-12.435,1.245-18.815C542,215.219,532.966,187.8,517.515,165.098z"/>
</g>
<g id="Layer_4">
	<defs>
		<circle id="SVGID_3_" cx="207.5" cy="132" r="250"/>
	</defs>
	<clipPath id="SVGID_4_">
		<use xlink:href="#SVGID_3_"  overflow="visible"/>
	</clipPath>
	<g clip-path="url(#SVGID_4_)">
		<circle opacity="0.2" fill="#FFFFFF" cx="400.25" cy="244.75" r="141.75"/>
	</g>
	<path opacity="0.3" clip-path="url(#SVGID_4_)" fill="#FFFFFF" d="M307.479,225.36c0-46.235,41.434-83.716,92.544-83.716
		c17.649,0,4.366-21.394-25.978-21.394c-51.11,0-92.544,37.481-92.544,83.716C281.5,234.236,307.479,244.146,307.479,225.36z"/>
</g>
</svg>
